<svg width="60" height="19" viewBox="0 0 60 19" fill="none" xmlns="http://www.w3.org/2000/svg">
<path d="M0.792 18V15.48L7.272 9.36C7.784 8.896 8.16 8.48 8.4 8.112C8.64 7.744 8.8 7.408 8.88 7.104C8.976 6.8 9.024 6.52 9.024 6.264C9.024 5.592 8.792 5.08 8.328 4.728C7.88 4.36 7.216 4.176 6.336 4.176C5.632 4.176 4.976 4.312 4.368 4.584C3.776 4.856 3.272 5.28 2.856 5.856L0.024 4.032C0.664 3.072 1.56 2.312 2.712 1.752C3.864 1.192 5.192 0.912 6.696 0.912C7.944 0.912 9.032 1.12 9.96 1.536C10.904 1.936 11.632 2.504 12.144 3.24C12.672 3.976 12.936 4.856 12.936 5.88C12.936 6.424 12.864 6.968 12.72 7.512C12.592 8.04 12.32 8.6 11.904 9.192C11.504 9.784 10.912 10.448 10.128 11.184L4.752 16.248L4.008 14.832H13.488V18H0.792ZM22.2923 18.288C20.9163 18.288 19.6843 17.952 18.5963 17.28C17.5083 16.592 16.6523 15.6 16.0283 14.304C15.4043 13.008 15.0923 11.44 15.0923 9.6C15.0923 7.76 15.4043 6.192 16.0283 4.896C16.6523 3.6 17.5083 2.616 18.5963 1.944C19.6843 1.256 20.9163 0.912 22.2923 0.912C23.6843 0.912 24.9163 1.256 25.9883 1.944C27.0763 2.616 27.9323 3.6 28.5563 4.896C29.1803 6.192 29.4923 7.76 29.4923 9.6C29.4923 11.44 29.1803 13.008 28.5563 14.304C27.9323 15.6 27.0763 16.592 25.9883 17.28C24.9163 17.952 23.6843 18.288 22.2923 18.288ZM22.2923 15C22.9483 15 23.5163 14.816 23.9963 14.448C24.4923 14.08 24.8763 13.496 25.1483 12.696C25.4363 11.896 25.5803 10.864 25.5803 9.6C25.5803 8.336 25.4363 7.304 25.1483 6.504C24.8763 5.704 24.4923 5.12 23.9963 4.752C23.5163 4.384 22.9483 4.2 22.2923 4.2C21.6523 4.2 21.0843 4.384 20.5883 4.752C20.1083 5.12 19.7243 5.704 19.4363 6.504C19.1643 7.304 19.0283 8.336 19.0283 9.6C19.0283 10.864 19.1643 11.896 19.4363 12.696C19.7243 13.496 20.1083 14.08 20.5883 14.448C21.0843 14.816 21.6523 15 22.2923 15ZM31.1436 18V15.48L37.6236 9.36C38.1356 8.896 38.5116 8.48 38.7516 8.112C38.9916 7.744 39.1516 7.408 39.2316 7.104C39.3276 6.8 39.3756 6.52 39.3756 6.264C39.3756 5.592 39.1436 5.08 38.6796 4.728C38.2316 4.36 37.5676 4.176 36.6876 4.176C35.9836 4.176 35.3276 4.312 34.7196 4.584C34.1276 4.856 33.6236 5.28 33.2076 5.856L30.3756 4.032C31.0156 3.072 31.9116 2.312 33.0636 1.752C34.2156 1.192 35.5436 0.912 37.0476 0.912C38.2956 0.912 39.3836 1.12 40.3116 1.536C41.2556 1.936 41.9836 2.504 42.4956 3.24C43.0236 3.976 43.2876 4.856 43.2876 5.88C43.2876 6.424 43.2156 6.968 43.0716 7.512C42.9436 8.04 42.6716 8.6 42.2556 9.192C41.8556 9.784 41.2636 10.448 40.4796 11.184L35.1036 16.248L34.3596 14.832H43.8396V18H31.1436ZM52.6438 18.288C51.2678 18.288 50.0358 17.952 48.9478 17.28C47.8598 16.592 47.0038 15.6 46.3798 14.304C45.7558 13.008 45.4438 11.44 45.4438 9.6C45.4438 7.76 45.7558 6.192 46.3798 4.896C47.0038 3.6 47.8598 2.616 48.9478 1.944C50.0358 1.256 51.2678 0.912 52.6438 0.912C54.0358 0.912 55.2678 1.256 56.3398 1.944C57.4278 2.616 58.2838 3.6 58.9078 4.896C59.5318 6.192 59.8438 7.76 59.8438 9.6C59.8438 11.44 59.5318 13.008 58.9078 14.304C58.2838 15.6 57.4278 16.592 56.3398 17.28C55.2678 17.952 54.0358 18.288 52.6438 18.288ZM52.6438 15C53.2998 15 53.8678 14.816 54.3478 14.448C54.8438 14.08 55.2278 13.496 55.4998 12.696C55.7878 11.896 55.9318 10.864 55.9318 9.6C55.9318 8.336 55.7878 7.304 55.4998 6.504C55.2278 5.704 54.8438 5.12 54.3478 4.752C53.8678 4.384 53.2998 4.2 52.6438 4.2C52.0038 4.2 51.4358 4.384 50.9398 4.752C50.4598 5.12 50.0758 5.704 49.7878 6.504C49.5158 7.304 49.3798 8.336 49.3798 9.6C49.3798 10.864 49.5158 11.896 49.7878 12.696C50.0758 13.496 50.4598 14.08 50.9398 14.448C51.4358 14.816 52.0038 15 52.6438 15Z" fill="#333333"/>
</svg>
