<svg width="58" height="19" viewBox="0 0 58 19" fill="none" xmlns="http://www.w3.org/2000/svg">
<path d="M0.792 18V15.48L7.272 9.36C7.784 8.896 8.16 8.48 8.4 8.112C8.64 7.744 8.8 7.408 8.88 7.104C8.976 6.8 9.024 6.52 9.024 6.264C9.024 5.592 8.792 5.08 8.328 4.728C7.88 4.36 7.216 4.176 6.336 4.176C5.632 4.176 4.976 4.312 4.368 4.584C3.776 4.856 3.272 5.28 2.856 5.856L0.024 4.032C0.664 3.072 1.56 2.312 2.712 1.752C3.864 1.192 5.192 0.912 6.696 0.912C7.944 0.912 9.032 1.12 9.96 1.536C10.904 1.936 11.632 2.504 12.144 3.24C12.672 3.976 12.936 4.856 12.936 5.88C12.936 6.424 12.864 6.968 12.72 7.512C12.592 8.04 12.32 8.6 11.904 9.192C11.504 9.784 10.912 10.448 10.128 11.184L4.752 16.248L4.008 14.832H13.488V18H0.792ZM22.2923 18.288C20.9163 18.288 19.6843 17.952 18.5963 17.28C17.5083 16.592 16.6523 15.6 16.0283 14.304C15.4043 13.008 15.0923 11.44 15.0923 9.6C15.0923 7.76 15.4043 6.192 16.0283 4.896C16.6523 3.6 17.5083 2.616 18.5963 1.944C19.6843 1.256 20.9163 0.912 22.2923 0.912C23.6843 0.912 24.9163 1.256 25.9883 1.944C27.0763 2.616 27.9323 3.6 28.5563 4.896C29.1803 6.192 29.4923 7.76 29.4923 9.6C29.4923 11.44 29.1803 13.008 28.5563 14.304C27.9323 15.6 27.0763 16.592 25.9883 17.28C24.9163 17.952 23.6843 18.288 22.2923 18.288ZM22.2923 15C22.9483 15 23.5163 14.816 23.9963 14.448C24.4923 14.08 24.8763 13.496 25.1483 12.696C25.4363 11.896 25.5803 10.864 25.5803 9.6C25.5803 8.336 25.4363 7.304 25.1483 6.504C24.8763 5.704 24.4923 5.12 23.9963 4.752C23.5163 4.384 22.9483 4.2 22.2923 4.2C21.6523 4.2 21.0843 4.384 20.5883 4.752C20.1083 5.12 19.7243 5.704 19.4363 6.504C19.1643 7.304 19.0283 8.336 19.0283 9.6C19.0283 10.864 19.1643 11.896 19.4363 12.696C19.7243 13.496 20.1083 14.08 20.5883 14.448C21.0843 14.816 21.6523 15 22.2923 15ZM31.1436 18V15.48L37.6236 9.36C38.1356 8.896 38.5116 8.48 38.7516 8.112C38.9916 7.744 39.1516 7.408 39.2316 7.104C39.3276 6.8 39.3756 6.52 39.3756 6.264C39.3756 5.592 39.1436 5.08 38.6796 4.728C38.2316 4.36 37.5676 4.176 36.6876 4.176C35.9836 4.176 35.3276 4.312 34.7196 4.584C34.1276 4.856 33.6236 5.28 33.2076 5.856L30.3756 4.032C31.0156 3.072 31.9116 2.312 33.0636 1.752C34.2156 1.192 35.5436 0.912 37.0476 0.912C38.2956 0.912 39.3836 1.12 40.3116 1.536C41.2556 1.936 41.9836 2.504 42.4956 3.24C43.0236 3.976 43.2876 4.856 43.2876 5.88C43.2876 6.424 43.2156 6.968 43.0716 7.512C42.9436 8.04 42.6716 8.6 42.2556 9.192C41.8556 9.784 41.2636 10.448 40.4796 11.184L35.1036 16.248L34.3596 14.832H43.8396V18H31.1436ZM45.2998 18V15.48L51.7798 9.36C52.2918 8.896 52.6678 8.48 52.9078 8.112C53.1478 7.744 53.3078 7.408 53.3878 7.104C53.4838 6.8 53.5318 6.52 53.5318 6.264C53.5318 5.592 53.2998 5.08 52.8358 4.728C52.3878 4.36 51.7238 4.176 50.8438 4.176C50.1398 4.176 49.4838 4.312 48.8758 4.584C48.2838 4.856 47.7798 5.28 47.3638 5.856L44.5318 4.032C45.1718 3.072 46.0678 2.312 47.2198 1.752C48.3718 1.192 49.6998 0.912 51.2038 0.912C52.4518 0.912 53.5398 1.12 54.4678 1.536C55.4118 1.936 56.1398 2.504 56.6518 3.24C57.1798 3.976 57.4438 4.856 57.4438 5.88C57.4438 6.424 57.3718 6.968 57.2278 7.512C57.0998 8.04 56.8278 8.6 56.4118 9.192C56.0118 9.784 55.4198 10.448 54.6358 11.184L49.2598 16.248L48.5158 14.832H57.9958V18H45.2998Z" fill="#333333"/>
</svg>
