<?xml version="1.0" encoding="utf-8"?>
<!-- Generator: Adobe Illustrator 26.0.0, SVG Export Plug-In . SVG Version: 6.00 Build 0)  -->
<svg version="1.1" id="Capa_1" xmlns="http://www.w3.org/2000/svg" xmlns:xlink="http://www.w3.org/1999/xlink" x="0px" y="0px"
	 viewBox="0 0 158.5 251.8" style="enable-background:new 0 0 158.5 251.8;" xml:space="preserve">
<style type="text/css">
	.st0{fill:#D03B2B;}
	.st1{fill:#18B4BB;}

	.st1{
		fill:transparent;
		-webkit-animation: color1 1s forwards 1s;
		-moz-animation: color1 1s forwards 1s;
		-o-animation: color1 1s forwards 1s;
		animation: color1 1s forwards 1s;
		}

	@keyframes color1{
		from{
			fill: transparent;
		}
		to{
			fill:#18B4BB;
		}
	}



</style>
<g>
	<g>
		<path class="st0" d="M52.5,53.9v9h-39v-52h38v8h-28v13h24v8h-24v14H52.5z"/>
		<path class="st1" d="M104.5,62.9V36.6L91.4,57.9h-3.2l-12.6-21v26h-7v-39h5.9l15.3,25.9l15-25.9h5.9l0.1,39H104.5z"/>
		<path class="st0" d="M46.7,101.2c3.3,1.5,5.9,3.6,7.7,6.4c1.8,2.8,2.7,6.1,2.7,9.9c0,3.8-0.9,7-2.7,9.8c-1.8,2.8-4.3,4.9-7.7,6.4
			c-3.3,1.5-7.3,2.2-11.8,2.2H23.5v15h-10v-52h21.4C39.4,98.9,43.4,99.7,46.7,101.2z M43.8,125.2c2.2-1.8,3.3-4.4,3.3-7.8
			c0-3.4-1.1-6-3.3-7.8c-2.2-1.8-5.5-2.7-9.7-2.7H22.5v21H34C38.3,127.9,41.6,127,43.8,125.2z"/>
		<path class="st1" d="M93.2,150.9l-7.7-11.1c-0.3,0-0.8,0.1-1.5,0.1h-8.5v11h-7v-39h15.5c3.3,0,6.1,0.6,8.5,1.7
			c2.4,1.1,4.3,2.7,5.6,4.8c1.3,2.1,1.9,4.6,1.9,7.4c0,2.9-0.7,5.5-2.1,7.6c-1.4,2.1-3.4,3.7-6,4.7l8.7,12.8H93.2z M90.7,119.9
			c-1.6-1.3-3.9-1.9-6.9-1.9h-8.2v15h8.2c3,0,5.4-0.7,6.9-2c1.6-1.3,2.4-3.2,2.4-5.6C93,123,92.2,121.1,90.7,119.9z"/>
		<path class="st1" d="M149.5,144.9v6h-29v-39h28v6h-21v10h19v6h-19v11H149.5z"/>
		<path class="st0" d="M59.5,187.9v52h-6.1l-29.9-35.2v35.2h-10v-52h6.1l29.9,35.2v-35.2H59.5z"/>
		<path class="st1" d="M68.5,200.9h17c4.2,0,7.9,0.8,11.1,2.4c3.2,1.6,5.7,3.9,7.5,6.9c1.8,3,2.7,6.4,2.7,10.2s-0.9,7.3-2.7,10.2
			c-1.8,3-4.3,5.2-7.5,6.9c-3.2,1.6-6.9,2.4-11.1,2.4h-17V200.9z M85.1,233.9c2.9,0,5.4-0.6,7.6-1.7c2.2-1.1,3.9-2.7,5.1-4.7
			c1.2-2,1.8-4.4,1.8-7.1c0-2.7-0.6-5.1-1.8-7.1c-1.2-2-2.9-3.6-5.1-4.7c-2.2-1.1-4.7-1.7-7.6-1.7h-9.6v27H85.1z"/>
		<path class="st1" d="M149.5,233.9v6h-29v-39h28v6h-21v10h19v6h-19v11H149.5z"/>
	</g>
	<g>
		<g>
			<path class="st1" d="M0.1,1.4c0,2.2,0,4.5,0,6.7c0,6.1,0,12.1,0,18.2c0,9,0,17.9,0,26.9c0,10.9,0,21.9,0,32.8
				c0,11.9,0,23.9,0,35.8c0,12.1,0,24.3,0,36.4c0,11.2,0,22.5,0,33.7c0,9.5,0,19.1,0,28.6c0,6.9,0,13.7,0,20.6c0,3.2-0.2,6.5,0,9.7
				c0,0.1,0,0.3,0,0.4c0,0.9,3.9,0.2,3.9-1c0-2.2,0-4.5,0-6.7c0-6.1,0-12.1,0-18.2c0-9,0-17.9,0-26.9c0-10.9,0-21.9,0-32.8
				c0-11.9,0-23.9,0-35.8c0-12.1,0-24.3,0-36.4C4,82.2,4,71,4,59.7c0-9.5,0-19.1,0-28.6c0-6.9,0-13.7,0-20.6C4,7.3,4.2,4,4,0.8
				c0-0.1,0-0.3,0-0.4C4-0.5,0.1,0.2,0.1,1.4L0.1,1.4z"/>
		</g>
	</g>
	<g>
		<g>
			<path class="st1" d="M2.4,251.7c5.1,0,10.3,0,15.4,0c12.2,0,24.5,0,36.7,0c14.8,0,29.6,0,44.4,0c12.9,0,25.7,0,38.6,0
				c6.2,0,12.4,0.3,18.6,0c0.1,0,0.2,0,0.3,0c0.8,0,2-0.6,2.1-1.5c0.1-1-1-1.1-1.7-1.1c-5.1,0-10.3,0-15.4,0c-12.2,0-24.5,0-36.7,0
				c-14.8,0-29.6,0-44.4,0c-12.9,0-25.7,0-38.6,0c-6.2,0-12.4-0.3-18.6,0c-0.1,0-0.2,0-0.3,0c-0.8,0-2,0.6-2.1,1.5
				C0.5,251.6,1.7,251.7,2.4,251.7L2.4,251.7z"/>
		</g>
	</g>
</g>
</svg>
